<svg width="20" height="19" viewBox="0 0 20 19" fill="none" xmlns="http://www.w3.org/2000/svg">
<path d="M16 2H4C2.89543 2 2 2.89543 2 4V15C2 16.1046 2.89543 17 4 17H16C17.1046 17 18 16.1046 18 15V4C18 2.89543 17.1046 2 16 2Z" fill="#2196F3"/>
<path d="M5.95703 9.75166L5.88825 9.68604L5.81923 9.75141L4.93123 10.5926L4.85486 10.6649L4.93097 10.7375L8.42671 14.0724L8.49574 14.1382L8.56476 14.0724L16.069 6.91352L16.1449 6.84116L16.069 6.76881L15.1873 5.92764L15.1183 5.86183L15.0493 5.92761L8.49577 12.1735L5.95703 9.75166Z" fill="white" stroke="white" stroke-width="0.2"/>
<path d="M17 1H3C1.89543 1 1 1.89543 1 3V16C1 17.1046 1.89543 18 3 18H17C18.1046 18 19 17.1046 19 16V3C19 1.89543 18.1046 1 17 1Z" stroke="#0C235F" stroke-linejoin="round"/>
</svg>
